<mxfile host="app.diagrams.net" modified="2023-10-26T11:25:22.972Z" agent="Mozilla/5.0 (Windows NT 10.0; Win64; x64) AppleWebKit/537.36 (KHTML, like Gecko) Chrome/118.0.0.0 Safari/537.36" etag="_nxzufqniphUA8Dek6gU" version="22.0.8" type="device">
  <diagram name="Страница — 1" id="Vsrj0zaIyXAfyzrPK-CX">
    <mxGraphModel dx="1050" dy="522" grid="1" gridSize="10" guides="1" tooltips="1" connect="1" arrows="1" fold="1" page="1" pageScale="1" pageWidth="827" pageHeight="1169" math="0" shadow="0">
      <root>
        <mxCell id="0" />
        <mxCell id="1" parent="0" />
        <mxCell id="Fhg0xmGqxe31VbySyie9-1" value="result" style="rounded=0;whiteSpace=wrap;html=1;" vertex="1" parent="1">
          <mxGeometry x="355" y="130" width="60" height="30" as="geometry" />
        </mxCell>
        <mxCell id="Fhg0xmGqxe31VbySyie9-2" value="&quot;Н_ТИПЫ_ВЕДОМОСТЕЙ&quot;.&lt;span style=&quot;font-size:&lt;br/&gt;10.0pt;line-height:107%;font-family:&amp;quot;Courier New&amp;quot;;mso-fareast-font-family:&amp;quot;Times New Roman&amp;quot;;&lt;br/&gt;color:#C77DBB;mso-ansi-language:RU;mso-fareast-language:EN-US;mso-bidi-language:&lt;br/&gt;AR-SA&quot; lang=&quot;RU&quot;&gt;&quot;НАИМЕНОВАНИЕ&quot;&lt;/span&gt;&lt;span style=&quot;font-size:10.0pt;&lt;br/&gt;line-height:107%;font-family:&amp;quot;Courier New&amp;quot;;mso-fareast-font-family:&amp;quot;Times New Roman&amp;quot;;&lt;br/&gt;color:#BCBEC4;mso-ansi-language:RU;mso-fareast-language:EN-US;mso-bidi-language:&lt;br/&gt;AR-SA&quot; lang=&quot;RU&quot;&gt;, &quot;Н_ВЕДОМОСТИ&quot;.&lt;/span&gt;&lt;span style=&quot;font-size:10.0pt;&lt;br/&gt;line-height:107%;font-family:&amp;quot;Courier New&amp;quot;;mso-fareast-font-family:&amp;quot;Times New Roman&amp;quot;;&lt;br/&gt;color:#C77DBB;mso-ansi-language:RU;mso-fareast-language:EN-US;mso-bidi-language:&lt;br/&gt;AR-SA&quot; lang=&quot;RU&quot;&gt;&quot;ЧЛВК_ИД&quot;&amp;nbsp;&lt;/span&gt;" style="rounded=0;whiteSpace=wrap;html=1;" vertex="1" parent="1">
          <mxGeometry x="250" y="210" width="270" height="30" as="geometry" />
        </mxCell>
        <mxCell id="Fhg0xmGqxe31VbySyie9-3" value="&quot;Н_ВЕДОМОСТИ&quot;.&lt;span style=&quot;font-size:10.0pt;&lt;br/&gt;line-height:107%;font-family:&amp;quot;Courier New&amp;quot;;mso-fareast-font-family:&amp;quot;Times New Roman&amp;quot;;&lt;br/&gt;color:#C77DBB;mso-ansi-language:RU;mso-fareast-language:EN-US;mso-bidi-language:&lt;br/&gt;AR-SA&quot; lang=&quot;RU&quot;&gt;&quot;ИД&quot; &lt;/span&gt;&lt;span style=&quot;font-size:10.0pt;line-height:&lt;br/&gt;107%;font-family:&amp;quot;Courier New&amp;quot;;mso-fareast-font-family:&amp;quot;Times New Roman&amp;quot;;&lt;br/&gt;color:#BCBEC4;mso-ansi-language:RU;mso-fareast-language:EN-US;mso-bidi-language:&lt;br/&gt;AR-SA&quot; lang=&quot;RU&quot;&gt;&amp;lt; &lt;/span&gt;&lt;span style=&quot;font-size:10.0pt;line-height:107%;&lt;br/&gt;font-family:&amp;quot;Courier New&amp;quot;;mso-fareast-font-family:&amp;quot;Times New Roman&amp;quot;;color:#2AACB8;&lt;br/&gt;mso-ansi-language:RU;mso-fareast-language:EN-US;mso-bidi-language:AR-SA&quot; lang=&quot;RU&quot;&gt;1250972&lt;/span&gt;" style="rounded=0;whiteSpace=wrap;html=1;" vertex="1" parent="1">
          <mxGeometry x="250" y="290" width="270" height="30" as="geometry" />
        </mxCell>
        <mxCell id="Fhg0xmGqxe31VbySyie9-4" value="&quot;Н_ТИПЫ_ВЕДОМОСТЕЙ&quot;.&lt;span style=&quot;font-size:&lt;br/&gt;10.0pt;line-height:107%;font-family:&amp;quot;Courier New&amp;quot;;mso-fareast-font-family:&amp;quot;Times New Roman&amp;quot;;&lt;br/&gt;color:#C77DBB;mso-ansi-language:RU;mso-fareast-language:EN-US;mso-bidi-language:&lt;br/&gt;AR-SA&quot; lang=&quot;RU&quot;&gt;&quot;НАИМЕНОВАНИЕ&quot; &lt;/span&gt;&lt;span style=&quot;font-size:10.0pt;&lt;br/&gt;line-height:107%;font-family:&amp;quot;Courier New&amp;quot;;mso-fareast-font-family:&amp;quot;Times New Roman&amp;quot;;&lt;br/&gt;color:#BCBEC4;mso-ansi-language:RU;mso-fareast-language:EN-US;mso-bidi-language:&lt;br/&gt;AR-SA&quot; lang=&quot;RU&quot;&gt;&amp;lt; &lt;/span&gt;&lt;span style=&quot;font-size:10.0pt;line-height:107%;&lt;br/&gt;font-family:&amp;quot;Courier New&amp;quot;;mso-fareast-font-family:&amp;quot;Times New Roman&amp;quot;;color:#6AAB73;&lt;br/&gt;mso-ansi-language:RU;mso-fareast-language:EN-US;mso-bidi-language:AR-SA&quot; lang=&quot;RU&quot;&gt;&#39;Экзаменационный лист&#39;&amp;nbsp;&lt;/span&gt;" style="rounded=0;whiteSpace=wrap;html=1;" vertex="1" parent="1">
          <mxGeometry x="250" y="370" width="270" height="30" as="geometry" />
        </mxCell>
        <mxCell id="Fhg0xmGqxe31VbySyie9-6" value="&quot;Н_ВЕДОМОСТИ&quot;.&lt;span style=&quot;font-size:10.0pt;&lt;br/&gt;line-height:107%;font-family:&amp;quot;Courier New&amp;quot;;mso-fareast-font-family:&amp;quot;Times New Roman&amp;quot;;&lt;br/&gt;color:#C77DBB;mso-ansi-language:RU;mso-fareast-language:EN-US;mso-bidi-language:&lt;br/&gt;AR-SA&quot; lang=&quot;RU&quot;&gt;&quot;ТВ_ИД&quot;&lt;/span&gt;&lt;span style=&quot;font-size:10.0pt;&lt;br/&gt;line-height:107%;font-family:&amp;quot;Courier New&amp;quot;;mso-fareast-font-family:&amp;quot;Times New Roman&amp;quot;;&lt;br/&gt;color:#BCBEC4;mso-ansi-language:RU;mso-fareast-language:EN-US;mso-bidi-language:&lt;br/&gt;AR-SA&quot; lang=&quot;RU&quot;&gt;=&lt;br&gt;&quot;Н_ТИПЫ_ВЕДОМОСТЕЙ&quot;.&lt;/span&gt;&lt;span style=&quot;font-size:&lt;br/&gt;10.0pt;line-height:107%;font-family:&amp;quot;Courier New&amp;quot;;mso-fareast-font-family:&amp;quot;Times New Roman&amp;quot;;&lt;br/&gt;color:#C77DBB;mso-ansi-language:RU;mso-fareast-language:EN-US;mso-bidi-language:&lt;br/&gt;AR-SA&quot; lang=&quot;RU&quot;&gt;&quot;ИД&quot;&lt;/span&gt;" style="rounded=0;whiteSpace=wrap;html=1;" vertex="1" parent="1">
          <mxGeometry x="250" y="450" width="270" height="30" as="geometry" />
        </mxCell>
        <mxCell id="Fhg0xmGqxe31VbySyie9-7" value="&quot;Н_ТИПЫ_ВЕДОМОСТЕЙ&quot;" style="rounded=0;whiteSpace=wrap;html=1;" vertex="1" parent="1">
          <mxGeometry x="85" y="530" width="270" height="30" as="geometry" />
        </mxCell>
        <mxCell id="Fhg0xmGqxe31VbySyie9-8" value="&quot;Н_ВЕДОМОСТИ&quot;" style="rounded=0;whiteSpace=wrap;html=1;" vertex="1" parent="1">
          <mxGeometry x="415" y="530" width="270" height="30" as="geometry" />
        </mxCell>
        <mxCell id="Fhg0xmGqxe31VbySyie9-9" value="" style="endArrow=classic;html=1;rounded=0;exitX=0.5;exitY=0;exitDx=0;exitDy=0;entryX=0.5;entryY=1;entryDx=0;entryDy=0;" edge="1" parent="1" source="Fhg0xmGqxe31VbySyie9-7" target="Fhg0xmGqxe31VbySyie9-6">
          <mxGeometry width="50" height="50" relative="1" as="geometry">
            <mxPoint x="390" y="420" as="sourcePoint" />
            <mxPoint x="440" y="370" as="targetPoint" />
          </mxGeometry>
        </mxCell>
        <mxCell id="Fhg0xmGqxe31VbySyie9-11" value="" style="endArrow=classic;html=1;rounded=0;exitX=0.5;exitY=0;exitDx=0;exitDy=0;entryX=0.5;entryY=1;entryDx=0;entryDy=0;" edge="1" parent="1" source="Fhg0xmGqxe31VbySyie9-8" target="Fhg0xmGqxe31VbySyie9-6">
          <mxGeometry width="50" height="50" relative="1" as="geometry">
            <mxPoint x="225" y="540" as="sourcePoint" />
            <mxPoint x="395" y="490" as="targetPoint" />
          </mxGeometry>
        </mxCell>
        <mxCell id="Fhg0xmGqxe31VbySyie9-12" value="" style="endArrow=classic;html=1;rounded=0;exitX=0.5;exitY=0;exitDx=0;exitDy=0;entryX=0.5;entryY=1;entryDx=0;entryDy=0;" edge="1" parent="1" source="Fhg0xmGqxe31VbySyie9-6" target="Fhg0xmGqxe31VbySyie9-4">
          <mxGeometry width="50" height="50" relative="1" as="geometry">
            <mxPoint x="555" y="540" as="sourcePoint" />
            <mxPoint x="395" y="490" as="targetPoint" />
          </mxGeometry>
        </mxCell>
        <mxCell id="Fhg0xmGqxe31VbySyie9-13" value="" style="endArrow=classic;html=1;rounded=0;exitX=0.5;exitY=0;exitDx=0;exitDy=0;entryX=0.5;entryY=1;entryDx=0;entryDy=0;" edge="1" parent="1" source="Fhg0xmGqxe31VbySyie9-4" target="Fhg0xmGqxe31VbySyie9-3">
          <mxGeometry width="50" height="50" relative="1" as="geometry">
            <mxPoint x="379.5" y="370" as="sourcePoint" />
            <mxPoint x="379.5" y="320" as="targetPoint" />
          </mxGeometry>
        </mxCell>
        <mxCell id="Fhg0xmGqxe31VbySyie9-14" value="" style="endArrow=classic;html=1;rounded=0;exitX=0.5;exitY=0;exitDx=0;exitDy=0;entryX=0.5;entryY=1;entryDx=0;entryDy=0;" edge="1" parent="1" source="Fhg0xmGqxe31VbySyie9-3" target="Fhg0xmGqxe31VbySyie9-2">
          <mxGeometry width="50" height="50" relative="1" as="geometry">
            <mxPoint x="395" y="380" as="sourcePoint" />
            <mxPoint x="395" y="330" as="targetPoint" />
          </mxGeometry>
        </mxCell>
        <mxCell id="Fhg0xmGqxe31VbySyie9-15" value="" style="endArrow=classic;html=1;rounded=0;entryX=0.5;entryY=1;entryDx=0;entryDy=0;exitX=0.5;exitY=0;exitDx=0;exitDy=0;" edge="1" parent="1" source="Fhg0xmGqxe31VbySyie9-2" target="Fhg0xmGqxe31VbySyie9-1">
          <mxGeometry width="50" height="50" relative="1" as="geometry">
            <mxPoint x="380" y="220" as="sourcePoint" />
            <mxPoint x="405" y="340" as="targetPoint" />
          </mxGeometry>
        </mxCell>
        <mxCell id="Fhg0xmGqxe31VbySyie9-17" value="result" style="rounded=0;whiteSpace=wrap;html=1;" vertex="1" parent="1">
          <mxGeometry x="1000" y="210" width="60" height="30" as="geometry" />
        </mxCell>
        <mxCell id="Fhg0xmGqxe31VbySyie9-18" value="&quot;Н_ТИПЫ_ВЕДОМОСТЕЙ&quot;.&lt;span style=&quot;font-size:&lt;br/&gt;10.0pt;line-height:107%;font-family:&amp;quot;Courier New&amp;quot;;mso-fareast-font-family:&amp;quot;Times New Roman&amp;quot;;&lt;br/&gt;color:#C77DBB;mso-ansi-language:RU;mso-fareast-language:EN-US;mso-bidi-language:&lt;br/&gt;AR-SA&quot; lang=&quot;RU&quot;&gt;&quot;НАИМЕНОВАНИЕ&quot;&lt;/span&gt;&lt;span style=&quot;font-size:10.0pt;&lt;br/&gt;line-height:107%;font-family:&amp;quot;Courier New&amp;quot;;mso-fareast-font-family:&amp;quot;Times New Roman&amp;quot;;&lt;br/&gt;color:#BCBEC4;mso-ansi-language:RU;mso-fareast-language:EN-US;mso-bidi-language:&lt;br/&gt;AR-SA&quot; lang=&quot;RU&quot;&gt;, &quot;Н_ВЕДОМОСТИ&quot;.&lt;/span&gt;&lt;span style=&quot;font-size:10.0pt;&lt;br/&gt;line-height:107%;font-family:&amp;quot;Courier New&amp;quot;;mso-fareast-font-family:&amp;quot;Times New Roman&amp;quot;;&lt;br/&gt;color:#C77DBB;mso-ansi-language:RU;mso-fareast-language:EN-US;mso-bidi-language:&lt;br/&gt;AR-SA&quot; lang=&quot;RU&quot;&gt;&quot;ЧЛВК_ИД&quot;&amp;nbsp;&lt;/span&gt;" style="rounded=0;whiteSpace=wrap;html=1;" vertex="1" parent="1">
          <mxGeometry x="895" y="290" width="270" height="30" as="geometry" />
        </mxCell>
        <mxCell id="Fhg0xmGqxe31VbySyie9-19" value="&quot;Н_ВЕДОМОСТИ&quot;.&lt;span style=&quot;font-size:10.0pt;&lt;br/&gt;line-height:107%;font-family:&amp;quot;Courier New&amp;quot;;mso-fareast-font-family:&amp;quot;Times New Roman&amp;quot;;&lt;br/&gt;color:#C77DBB;mso-ansi-language:RU;mso-fareast-language:EN-US;mso-bidi-language:&lt;br/&gt;AR-SA&quot; lang=&quot;RU&quot;&gt;&quot;ИД&quot; &lt;/span&gt;&lt;span style=&quot;font-size:10.0pt;line-height:&lt;br/&gt;107%;font-family:&amp;quot;Courier New&amp;quot;;mso-fareast-font-family:&amp;quot;Times New Roman&amp;quot;;&lt;br/&gt;color:#BCBEC4;mso-ansi-language:RU;mso-fareast-language:EN-US;mso-bidi-language:&lt;br/&gt;AR-SA&quot; lang=&quot;RU&quot;&gt;&amp;lt; &lt;/span&gt;&lt;span style=&quot;font-size:10.0pt;line-height:107%;&lt;br/&gt;font-family:&amp;quot;Courier New&amp;quot;;mso-fareast-font-family:&amp;quot;Times New Roman&amp;quot;;color:#2AACB8;&lt;br/&gt;mso-ansi-language:RU;mso-fareast-language:EN-US;mso-bidi-language:AR-SA&quot; lang=&quot;RU&quot;&gt;1250972&lt;/span&gt;" style="rounded=0;whiteSpace=wrap;html=1;" vertex="1" parent="1">
          <mxGeometry x="1060" y="450" width="270" height="30" as="geometry" />
        </mxCell>
        <mxCell id="Fhg0xmGqxe31VbySyie9-20" value="&quot;Н_ТИПЫ_ВЕДОМОСТЕЙ&quot;.&lt;span style=&quot;font-size:&lt;br/&gt;10.0pt;line-height:107%;font-family:&amp;quot;Courier New&amp;quot;;mso-fareast-font-family:&amp;quot;Times New Roman&amp;quot;;&lt;br/&gt;color:#C77DBB;mso-ansi-language:RU;mso-fareast-language:EN-US;mso-bidi-language:&lt;br/&gt;AR-SA&quot; lang=&quot;RU&quot;&gt;&quot;НАИМЕНОВАНИЕ&quot; &lt;/span&gt;&lt;span style=&quot;font-size:10.0pt;&lt;br/&gt;line-height:107%;font-family:&amp;quot;Courier New&amp;quot;;mso-fareast-font-family:&amp;quot;Times New Roman&amp;quot;;&lt;br/&gt;color:#BCBEC4;mso-ansi-language:RU;mso-fareast-language:EN-US;mso-bidi-language:&lt;br/&gt;AR-SA&quot; lang=&quot;RU&quot;&gt;&amp;lt; &lt;/span&gt;&lt;span style=&quot;font-size:10.0pt;line-height:107%;&lt;br/&gt;font-family:&amp;quot;Courier New&amp;quot;;mso-fareast-font-family:&amp;quot;Times New Roman&amp;quot;;color:#6AAB73;&lt;br/&gt;mso-ansi-language:RU;mso-fareast-language:EN-US;mso-bidi-language:AR-SA&quot; lang=&quot;RU&quot;&gt;&#39;Экзаменационный лист&#39;&amp;nbsp;&lt;/span&gt;" style="rounded=0;whiteSpace=wrap;html=1;" vertex="1" parent="1">
          <mxGeometry x="730" y="450" width="270" height="30" as="geometry" />
        </mxCell>
        <mxCell id="Fhg0xmGqxe31VbySyie9-21" value="&quot;Н_ВЕДОМОСТИ&quot;.&lt;span style=&quot;font-size:10.0pt;&lt;br/&gt;line-height:107%;font-family:&amp;quot;Courier New&amp;quot;;mso-fareast-font-family:&amp;quot;Times New Roman&amp;quot;;&lt;br/&gt;color:#C77DBB;mso-ansi-language:RU;mso-fareast-language:EN-US;mso-bidi-language:&lt;br/&gt;AR-SA&quot; lang=&quot;RU&quot;&gt;&quot;ТВ_ИД&quot;&lt;/span&gt;&lt;span style=&quot;font-size:10.0pt;&lt;br/&gt;line-height:107%;font-family:&amp;quot;Courier New&amp;quot;;mso-fareast-font-family:&amp;quot;Times New Roman&amp;quot;;&lt;br/&gt;color:#BCBEC4;mso-ansi-language:RU;mso-fareast-language:EN-US;mso-bidi-language:&lt;br/&gt;AR-SA&quot; lang=&quot;RU&quot;&gt;=&lt;br&gt;&quot;Н_ТИПЫ_ВЕДОМОСТЕЙ&quot;.&lt;/span&gt;&lt;span style=&quot;font-size:&lt;br/&gt;10.0pt;line-height:107%;font-family:&amp;quot;Courier New&amp;quot;;mso-fareast-font-family:&amp;quot;Times New Roman&amp;quot;;&lt;br/&gt;color:#C77DBB;mso-ansi-language:RU;mso-fareast-language:EN-US;mso-bidi-language:&lt;br/&gt;AR-SA&quot; lang=&quot;RU&quot;&gt;&quot;ИД&quot;&lt;/span&gt;" style="rounded=0;whiteSpace=wrap;html=1;" vertex="1" parent="1">
          <mxGeometry x="895" y="370" width="270" height="30" as="geometry" />
        </mxCell>
        <mxCell id="Fhg0xmGqxe31VbySyie9-22" value="&quot;Н_ТИПЫ_ВЕДОМОСТЕЙ&quot;" style="rounded=0;whiteSpace=wrap;html=1;" vertex="1" parent="1">
          <mxGeometry x="730" y="530" width="270" height="30" as="geometry" />
        </mxCell>
        <mxCell id="Fhg0xmGqxe31VbySyie9-23" value="&quot;Н_ВЕДОМОСТИ&quot;" style="rounded=0;whiteSpace=wrap;html=1;" vertex="1" parent="1">
          <mxGeometry x="1060" y="530" width="270" height="30" as="geometry" />
        </mxCell>
        <mxCell id="Fhg0xmGqxe31VbySyie9-24" value="" style="endArrow=classic;html=1;rounded=0;exitX=0.5;exitY=0;exitDx=0;exitDy=0;entryX=0.5;entryY=1;entryDx=0;entryDy=0;" edge="1" parent="1" source="Fhg0xmGqxe31VbySyie9-22" target="Fhg0xmGqxe31VbySyie9-20">
          <mxGeometry width="50" height="50" relative="1" as="geometry">
            <mxPoint x="1035" y="420" as="sourcePoint" />
            <mxPoint x="1010" y="510" as="targetPoint" />
          </mxGeometry>
        </mxCell>
        <mxCell id="Fhg0xmGqxe31VbySyie9-25" value="" style="endArrow=classic;html=1;rounded=0;exitX=0.5;exitY=0;exitDx=0;exitDy=0;entryX=0.5;entryY=1;entryDx=0;entryDy=0;" edge="1" parent="1" source="Fhg0xmGqxe31VbySyie9-23" target="Fhg0xmGqxe31VbySyie9-19">
          <mxGeometry width="50" height="50" relative="1" as="geometry">
            <mxPoint x="870" y="540" as="sourcePoint" />
            <mxPoint x="1040" y="520" as="targetPoint" />
          </mxGeometry>
        </mxCell>
        <mxCell id="Fhg0xmGqxe31VbySyie9-26" value="" style="endArrow=classic;html=1;rounded=0;exitX=0.5;exitY=0;exitDx=0;exitDy=0;entryX=0.5;entryY=1;entryDx=0;entryDy=0;" edge="1" parent="1" source="Fhg0xmGqxe31VbySyie9-21" target="Fhg0xmGqxe31VbySyie9-18">
          <mxGeometry width="50" height="50" relative="1" as="geometry">
            <mxPoint x="1200" y="540" as="sourcePoint" />
            <mxPoint x="1040" y="490" as="targetPoint" />
          </mxGeometry>
        </mxCell>
        <mxCell id="Fhg0xmGqxe31VbySyie9-27" value="" style="endArrow=classic;html=1;rounded=0;exitX=0.5;exitY=0;exitDx=0;exitDy=0;entryX=0.5;entryY=1;entryDx=0;entryDy=0;" edge="1" parent="1" source="Fhg0xmGqxe31VbySyie9-20" target="Fhg0xmGqxe31VbySyie9-21">
          <mxGeometry width="50" height="50" relative="1" as="geometry">
            <mxPoint x="1024.5" y="370" as="sourcePoint" />
            <mxPoint x="1190" y="480" as="targetPoint" />
          </mxGeometry>
        </mxCell>
        <mxCell id="Fhg0xmGqxe31VbySyie9-28" value="" style="endArrow=classic;html=1;rounded=0;exitX=0.5;exitY=0;exitDx=0;exitDy=0;entryX=0.5;entryY=1;entryDx=0;entryDy=0;" edge="1" parent="1" source="Fhg0xmGqxe31VbySyie9-19" target="Fhg0xmGqxe31VbySyie9-21">
          <mxGeometry width="50" height="50" relative="1" as="geometry">
            <mxPoint x="1040" y="380" as="sourcePoint" />
            <mxPoint x="1040" y="330" as="targetPoint" />
          </mxGeometry>
        </mxCell>
        <mxCell id="Fhg0xmGqxe31VbySyie9-29" value="" style="endArrow=classic;html=1;rounded=0;entryX=0.5;entryY=1;entryDx=0;entryDy=0;exitX=0.5;exitY=0;exitDx=0;exitDy=0;" edge="1" parent="1" source="Fhg0xmGqxe31VbySyie9-18" target="Fhg0xmGqxe31VbySyie9-17">
          <mxGeometry width="50" height="50" relative="1" as="geometry">
            <mxPoint x="1025" y="220" as="sourcePoint" />
            <mxPoint x="1050" y="340" as="targetPoint" />
          </mxGeometry>
        </mxCell>
      </root>
    </mxGraphModel>
  </diagram>
</mxfile>
